# xmcd
#
# Track frame offsets:
#	150
#	11425
#	29706
#	36884
#	47892
#	58124
#	73211
#	86398
#	101838
#	110280
#	120953
#	137061
#	151006
#	168579
#	179438
#	186955
#	203974
#	218123
#	232777
#	243092
#	258792
#	271011
#	285806
#	301591
#	318543
#	329347
#	351900
#
# Disc length: 4713 seconds
#
# Revision: 2
# Processed by: cddbd v1.4PL0 Copyright (c) Steve Scherf et al.
# Submitted via: audiograbber 1.80.04
#
DISCID=7412671b
DTITLE=Neko Case - Blacklisted and Canadian Amp
DYEAR=2003
DGENRE=Rock
TTITLE0=Things That Scare Me
TTITLE1=Deep Red Bells
TTITLE2=Outro With Bees
TTITLE3=Lady Pilot
TTITLE4=Tightly
TTITLE5=Look For Me (I'll Be Around)
TTITLE6=Stinging Velvet
TTITLE7=Pretty Girls
TTITLE8=I Missed The Point
TTITLE9=Blacklisted
TTITLE10=I Wish I Was On The Moon
TTITLE11=Runnin' Out Of Fools
TTITLE12=Ghost Wiring
TTITLE13=Outro With Bees (Reprise)
TTITLE14=Andy (orig. Mike O'Neill) - Canadian Amp
TTITLE15=Dreaming Man (orig. Neil Young) - Canadian Amp
TTITLE16=Knock Loud (orig. Sook-Yin Lee) - Canadian Amp
TTITLE17=Make Your Bed - Canadian Amp
TTITLE18=Poor Ellen Smith (trad.) - Canadian Amp
TTITLE19=In California (orig. Lisa Marr) - Canadian Amp
TTITLE20=Alone And Forsaken (orig. Hank Williams) - Canadian Amp
TTITLE21=Favorite - Canadian Amp
TTITLE22=Stinging Velvet (w/ Calexico)
TTITLE23=Letter From an Occupant (The New Pornographers w/ N. Case)
TTITLE24=Stay A Little Longer (w/ Bob Boyd)
TTITLE25=Cowhand
TTITLE26=Daten-CD
EXTD=
EXTT0=
EXTT1=
EXTT2=
EXTT3=
EXTT4=
EXTT5=
EXTT6=
EXTT7=
EXTT8=
EXTT9=
EXTT10=
EXTT11=
EXTT12=
EXTT13=
EXTT14=
EXTT15=
EXTT16=
EXTT17=
EXTT18=
EXTT19=
EXTT20=
EXTT21=
EXTT22=
EXTT23=
EXTT24=
EXTT25=
EXTT26=
PLAYORDER=
